<svg width="24" height="24" viewBox="0 0 24 24" fill="none" xmlns="http://www.w3.org/2000/svg">
<path d="M16.293 6.29289C16.6835 5.90237 17.3165 5.90237 17.707 6.29289C18.0975 6.68342 18.0975 7.31643 17.707 7.70696L7.70702 17.707C7.31649 18.0975 6.68348 18.0975 6.29295 17.707C5.90243 17.3164 5.90243 16.6834 6.29295 16.2929L16.293 6.29289Z" fill="#0D7AB6"/>
<path d="M16 17V8H7C6.44772 8 6 7.55228 6 7C6 6.44772 6.44772 6 7 6H17C17.5523 6 18 6.44772 18 7V17C18 17.5523 17.5523 18 17 18C16.4477 18 16 17.5523 16 17Z" fill="#0D7AB6"/>
</svg>
