<svg width="16" height="16" viewBox="0 0 16 16" fill="none" xmlns="http://www.w3.org/2000/svg">
<path d="M13.3333 4C13.3333 3.63181 13.0349 3.33333 12.6667 3.33333H3.33334C2.96515 3.33333 2.66668 3.63181 2.66668 4V13.3333C2.66668 13.7015 2.96515 14 3.33334 14H12.6667C13.0349 14 13.3333 13.7015 13.3333 13.3333V4ZM14.6667 13.3333C14.6667 14.4379 13.7712 15.3333 12.6667 15.3333H3.33334C2.22877 15.3333 1.33334 14.4379 1.33334 13.3333V4C1.33334 2.89543 2.22877 2 3.33334 2H12.6667C13.7712 2 14.6667 2.89543 14.6667 4V13.3333Z" fill="#94A3B8"/>
<path d="M10 3.99984V1.33317C10 0.964981 10.2985 0.666504 10.6667 0.666504C11.0349 0.666504 11.3333 0.964981 11.3333 1.33317V3.99984C11.3333 4.36803 11.0349 4.6665 10.6667 4.6665C10.2985 4.6665 10 4.36803 10 3.99984Z" fill="#94A3B8"/>
<path d="M4.66666 3.99984V1.33317C4.66666 0.964981 4.96513 0.666504 5.33332 0.666504C5.70151 0.666504 5.99999 0.964981 5.99999 1.33317V3.99984C5.99999 4.36803 5.70151 4.6665 5.33332 4.6665C4.96513 4.6665 4.66666 4.36803 4.66666 3.99984Z" fill="#94A3B8"/>
<path d="M14 6C14.3682 6 14.6667 6.29848 14.6667 6.66667C14.6667 7.03486 14.3682 7.33333 14 7.33333H2.00001C1.63182 7.33333 1.33334 7.03486 1.33334 6.66667C1.33334 6.29848 1.63182 6 2.00001 6H14Z" fill="#94A3B8"/>
</svg>
