<svg width="16" height="16" viewBox="0 0 16 16" fill="none" xmlns="http://www.w3.org/2000/svg">
<path d="M9.63429 0.658745C9.7868 0.495336 10.0297 0.45317 10.2285 0.55523C10.4273 0.65733 10.5341 0.87908 10.4902 1.0982L9.57325 5.68072L13.1758 7.03179C13.332 7.09044 13.4487 7.22333 13.4868 7.3858C13.525 7.54831 13.4796 7.71932 13.3657 7.84136L6.36573 15.3414C6.21322 15.5048 5.97036 15.5469 5.77149 15.4449C5.57274 15.3428 5.46595 15.121 5.50977 14.9019L6.42628 10.3189L2.82423 8.96832C2.66799 8.90967 2.55133 8.77678 2.51319 8.61431C2.47505 8.45179 2.52039 8.28079 2.63429 8.15875L9.63429 0.658745ZM3.87599 8.294L7.17579 9.53179C7.40522 9.61792 7.53831 9.85788 7.49024 10.0982L6.83546 13.3716L12.1235 7.70562L8.82423 6.46832C8.5948 6.38219 8.46171 6.14223 8.50978 5.90191L9.16407 2.62798L3.87599 8.294Z" fill="#15AE65"/>
</svg>
