<svg width="24" height="24" viewBox="0 0 24 24" fill="none" xmlns="http://www.w3.org/2000/svg">
<path fill-rule="evenodd" clip-rule="evenodd" d="M5.71601 5.50624C6.33801 6.01224 6.57101 5.97324 7.73901 5.89624L18.752 5.23424C18.985 5.23424 18.791 5.00124 18.713 4.96224L16.884 3.64024C16.534 3.36824 16.067 3.05724 15.172 3.13424L4.50901 3.91224C4.11901 3.95124 4.04201 4.14524 4.19701 4.30224L5.71601 5.50624ZM6.37601 8.07324V19.6602C6.37601 20.2822 6.68801 20.5152 7.38801 20.4772L19.491 19.7772C20.191 19.7382 20.27 19.3102 20.27 18.8042V7.29424C20.27 6.79024 20.076 6.51724 19.647 6.55624L6.99901 7.29524C6.53201 7.33424 6.37601 7.56724 6.37601 8.07324ZM18.325 8.69424C18.403 9.04424 18.325 9.39424 17.975 9.43424L17.391 9.55024V18.1052C16.885 18.3772 16.418 18.5322 16.029 18.5322C15.406 18.5322 15.25 18.3382 14.784 17.7552L10.969 11.7672V17.5602L12.176 17.8332C12.176 17.8332 12.176 18.5332 11.203 18.5332L8.51801 18.6882C8.44001 18.5322 8.51801 18.1442 8.79001 18.0662L9.49001 17.8722V10.2122L8.51801 10.1332C8.44001 9.78324 8.63401 9.27824 9.18001 9.23924L12.06 9.04524L16.03 15.1112V9.74524L15.017 9.62924C14.939 9.20024 15.25 8.88924 15.64 8.85124L18.325 8.69424ZM3.61401 2.86224L14.704 2.04624C16.067 1.92924 16.417 2.00724 17.274 2.62924L20.814 5.11724C21.398 5.54524 21.593 5.66224 21.593 6.12824V19.7772C21.593 20.6322 21.281 21.1372 20.192 21.2152L7.31201 21.9932C6.49301 22.0332 6.10401 21.9162 5.67601 21.3712L3.06901 17.9882C2.60201 17.3652 2.40701 16.8992 2.40701 16.3542V4.22324C2.40701 3.52324 2.71901 2.94024 3.61301 2.86324" fill="#0D7AB6"/>
</svg>
