<svg width="32" height="32" viewBox="0 0 32 32" fill="none" xmlns="http://www.w3.org/2000/svg">
<path fill-rule="evenodd" clip-rule="evenodd" d="M7.62135 7.34181C8.45068 8.01648 8.76135 7.96448 10.3187 7.86181L25.0027 6.97915C25.3134 6.97915 25.0547 6.66848 24.9507 6.61648L22.512 4.85381C22.0454 4.49115 21.4227 4.07648 20.2294 4.17915L6.01202 5.21648C5.49202 5.26848 5.38935 5.52715 5.59602 5.73648L7.62135 7.34181ZM8.50135 10.7645V26.2138C8.50135 27.0431 8.91735 27.3538 9.85068 27.3031L25.988 26.3698C26.9214 26.3178 27.0267 25.7471 27.0267 25.0725V9.72581C27.0267 9.05381 26.768 8.68981 26.196 8.74181L9.33202 9.72715C8.70935 9.77915 8.50135 10.0898 8.50135 10.7645ZM24.4334 11.5925C24.5374 12.0591 24.4334 12.5258 23.9667 12.5791L23.188 12.7338V24.1405C22.5134 24.5031 21.8907 24.7098 21.372 24.7098C20.5414 24.7098 20.3334 24.4511 19.712 23.6738L14.6254 15.6898V23.4138L16.2347 23.7778C16.2347 23.7778 16.2347 24.7111 14.9374 24.7111L11.3574 24.9178C11.2534 24.7098 11.3574 24.1925 11.72 24.0885L12.6534 23.8298V13.6165L11.3574 13.5111C11.2534 13.0445 11.512 12.3711 12.24 12.3191L16.08 12.0605L21.3734 20.1485V12.9938L20.0227 12.8391C19.9187 12.2671 20.3334 11.8525 20.8534 11.8018L24.4334 11.5925ZM4.81868 3.81648L19.6054 2.72848C21.4227 2.57248 21.8894 2.67648 23.032 3.50581L27.752 6.82315C28.5307 7.39381 28.7907 7.54981 28.7907 8.17114V26.3698C28.7907 27.5098 28.3747 28.1831 26.9227 28.2871L9.74935 29.3245C8.65735 29.3778 8.13868 29.2218 7.56802 28.4951L4.09202 23.9845C3.46935 23.1538 3.20935 22.5325 3.20935 21.8058V5.63115C3.20935 4.69781 3.62535 3.92048 4.81735 3.81781" fill="#64748B"/>
</svg>
