<svg width="25" height="25" viewBox="0 0 25 25" fill="none" xmlns="http://www.w3.org/2000/svg">
<path d="M6.27246 0.044063C6.597 0.0292086 6.92025 0.0944649 7.21387 0.233516L7.3584 0.308711L7.49609 0.396602C7.80451 0.610536 8.0464 0.908347 8.19336 1.25598L10.7051 7.11438L10.75 7.22863C10.8476 7.49742 10.8871 7.78444 10.8643 8.07043C10.8381 8.39741 10.7315 8.71311 10.5547 8.98938L10.5479 8.99914L8.46484 12.1681C9.39462 14.0859 10.9454 15.6324 12.8652 16.5577L12.8691 16.5558L15.9941 14.4689C16.2707 14.2826 16.5898 14.1684 16.9219 14.1378C17.2561 14.107 17.5929 14.1616 17.9004 14.296H17.8994L23.7334 16.8019C24.0854 16.9484 24.3875 17.1926 24.6035 17.504L24.6914 17.6417L24.7666 17.7863C24.9057 18.0799 24.9709 18.4031 24.9561 18.7277L24.9414 18.8898C24.7251 20.5779 23.9015 22.1294 22.624 23.254C21.3463 24.3787 19.7022 24.9997 18 25.0001C13.2261 25.0001 8.64812 23.1033 5.27246 19.7277C2.00237 16.4576 0.120357 12.0592 0.00585938 7.44738L0 7.00012C0.000383636 5.29795 0.621411 3.65378 1.74609 2.37609C2.87072 1.09865 4.42219 0.275032 6.11035 0.0587114L6.27246 0.044063ZM6.36328 2.02941L6.3623 2.03039L6.36328 2.04016L6.36426 2.03918L6.36328 2.02941ZM2.00488 7.39758C2.10663 11.497 3.77975 15.4068 6.68652 18.3136C9.68711 21.3142 13.7565 23.0001 18 23.0001L18.2275 22.9952C19.3616 22.9433 20.4472 22.5061 21.3027 21.753C22.2131 20.9516 22.7999 19.8463 22.9561 18.6437H22.9551L17.1055 16.132L13.9834 18.2159L13.9844 18.2169C13.6966 18.4111 13.3628 18.5266 13.0166 18.5529C12.6704 18.5791 12.3235 18.5149 12.0098 18.3663L12.0039 18.3634C9.67277 17.2419 7.78958 15.3645 6.66211 13.0363L7.5625 12.5997L6.66016 13.0314C6.51265 12.7229 6.44688 12.3814 6.46875 12.0402C6.49068 11.699 6.5995 11.3692 6.78516 11.0821L6.78906 11.0753L8.87012 7.91125L8.86816 7.90637L6.35547 2.04406L6.35449 2.04309C5.15256 2.19956 4.04816 2.78748 3.24707 3.69738C2.44378 4.60995 2.00034 5.78438 2 7.00012L2.00488 7.39758Z" fill="#64748B"/>
</svg>
