<svg width="16" height="16" viewBox="0 0 16 16" fill="none" xmlns="http://www.w3.org/2000/svg">
<path d="M8.25 6.75C8.25 5.23122 7.01878 4 5.5 4C3.98122 4 2.75 5.23122 2.75 6.75C2.75 8.26878 3.98122 9.5 5.5 9.5C7.01878 9.5 8.25 8.26878 8.25 6.75ZM9.25 6.75C9.25 8.82107 7.57107 10.5 5.5 10.5C3.42893 10.5 1.75 8.82107 1.75 6.75C1.75 4.67893 3.42893 3 5.5 3C7.57107 3 9.25 4.67893 9.25 6.75Z" fill="#0369A1"/>
<path d="M13.3438 6.75C13.3438 6.02068 13.0539 5.32138 12.5382 4.80566C12.0226 4.29008 11.3235 4.00016 10.5943 4C10.3407 4.00085 10.0882 4.03468 9.84335 4.10107C9.57684 4.17336 9.30236 4.01603 9.23007 3.74951C9.15784 3.48302 9.31515 3.20851 9.58164 3.13623C9.9111 3.04687 10.251 3.00104 10.5924 3H10.5938C11.5883 3.00003 12.542 3.39503 13.2452 4.09814C13.9485 4.80141 14.3438 5.75544 14.3438 6.75C14.3438 7.74456 13.9485 8.69859 13.2452 9.40186C12.542 10.105 11.5883 10.5 10.5938 10.5C10.3177 10.5 10.0938 10.2761 10.0938 10C10.0938 9.72386 10.3177 9.5 10.5938 9.5C11.3232 9.49997 12.0225 9.21004 12.5382 8.69434C13.0539 8.17862 13.3438 7.47932 13.3438 6.75Z" fill="#0369A1"/>
<path d="M5.50001 9.5C6.46286 9.5 7.41169 9.73191 8.26613 10.1758C9.12049 10.6197 9.85563 11.2626 10.4092 12.0503C10.5679 12.2762 10.5134 12.5878 10.2876 12.7466C10.0617 12.9054 9.7496 12.8509 9.59083 12.625C9.12954 11.9686 8.51709 11.4328 7.80519 11.063C7.09316 10.6931 6.30239 10.5 5.50001 10.5C4.69764 10.5 3.90686 10.6931 3.19484 11.063C2.48293 11.4328 1.87048 11.9686 1.40919 12.625C1.25042 12.8509 0.938349 12.9054 0.712414 12.7466C0.486662 12.5878 0.432171 12.2762 0.590832 12.0503C1.1444 11.2626 1.87954 10.6197 2.7339 10.1758C3.58833 9.73191 4.53716 9.5 5.50001 9.5Z" fill="#0369A1"/>
<path d="M10.5933 9.5C11.5562 9.4994 12.5053 9.73094 13.3599 10.1748C14.2145 10.6187 14.9497 11.2621 15.5029 12.0503C15.6616 12.2763 15.6069 12.5879 15.3809 12.7466C15.1549 12.9052 14.8433 12.8509 14.6846 12.625C14.2236 11.9683 13.6109 11.4319 12.8989 11.062C12.187 10.6923 11.3965 10.4995 10.5942 10.5C10.3182 10.5002 10.094 10.2766 10.0938 10.0005C10.0936 9.72441 10.3172 9.50027 10.5933 9.5Z" fill="#0369A1"/>
</svg>
